<?xml version="1.0" encoding="UTF-8" standalone="no"?>
<!-- Created with Inkscape (http://www.inkscape.org/) -->

<svg
   xmlns:dc="http://purl.org/dc/elements/1.1/"
   xmlns:cc="http://creativecommons.org/ns#"
   xmlns:rdf="http://www.w3.org/1999/02/22-rdf-syntax-ns#"
   xmlns:svg="http://www.w3.org/2000/svg"
   xmlns="http://www.w3.org/2000/svg"
   xmlns:sodipodi="http://sodipodi.sourceforge.net/DTD/sodipodi-0.dtd"
   xmlns:inkscape="http://www.inkscape.org/namespaces/inkscape"
   width="400"
   height="400"
   viewBox="0 0 400 400.00001"
   id="svg4195"
   version="1.1"
   inkscape:version="0.91 r13725"
   sodipodi:docname="cafe cup.svg">
  <defs
     id="defs4197" />
  <sodipodi:namedview
     id="base"
     pagecolor="#ffffff"
     bordercolor="#666666"
     borderopacity="1.0"
     inkscape:pageopacity="0.0"
     inkscape:pageshadow="2"
     inkscape:zoom="0.49497475"
     inkscape:cx="493.50338"
     inkscape:cy="537.21048"
     inkscape:document-units="px"
     inkscape:current-layer="layer1"
     showgrid="false"
     units="px"
     inkscape:window-width="1920"
     inkscape:window-height="1017"
     inkscape:window-x="-8"
     inkscape:window-y="-8"
     inkscape:window-maximized="1" />
  <metadata
     id="metadata4200">
    <rdf:RDF>
      <cc:Work
         rdf:about="">
        <dc:format>image/svg+xml</dc:format>
        <dc:type
           rdf:resource="http://purl.org/dc/dcmitype/StillImage" />
        <dc:title></dc:title>
      </cc:Work>
    </rdf:RDF>
  </metadata>
  <g
     inkscape:label="Livello 1"
     inkscape:groupmode="layer"
     id="layer1"
     transform="translate(0,-652.36216)">
    <g
       id="g4871"
       transform="matrix(4.587543,0,0,4.587543,-1201.819,-2333.5127)">
      <g
         transform="translate(255.75593,657.07535)"
         id="g4889">
        <path
           id="path30859"
           style="fill:none;fill-opacity:1;fill-rule:evenodd;stroke:#704f38;stroke-width:0.3473255;stroke-linecap:butt;stroke-linejoin:miter;stroke-miterlimit:4;stroke-dasharray:none;stroke-opacity:1"
           d="m 45.519245,32.969347 1.921829,-4.691301 4.991611,-0.03641 -1.843947,4.63687 -5.069493,0.09084 z"
           inkscape:connector-curvature="0" />
        <path
           id="path30855"
           style="fill:#704f38;fill-opacity:1;fill-rule:evenodd;stroke:none;stroke-width:1px;stroke-linecap:butt;stroke-linejoin:miter;stroke-opacity:1"
           d="m 66.57031,28.203022 c 0.143328,0.316791 -0.03977,0.493036 -0.0893,0.756469 0.320922,-0.220207 0.841138,-0.580931 0.821981,-0.611444 l -0.280211,-0.446326 -0.452442,0.301348 z"
           inkscape:connector-curvature="0" />
        <path
           id="path29926"
           style="fill:#704f38;fill-opacity:1;fill-rule:evenodd;stroke:none;stroke-width:1px;stroke-linecap:butt;stroke-linejoin:miter;stroke-opacity:1"
           d="m 49.703425,45.52265 c 1.310116,1.890794 4.030294,0.03174 2.743993,-1.850332"
           inkscape:connector-curvature="0" />
        <path
           id="path30815"
           style="fill:#704f38;fill-opacity:1;fill-rule:evenodd;stroke:none;stroke-width:1px;stroke-linecap:butt;stroke-linejoin:miter;stroke-opacity:1"
           d="m 55.338461,41.670571 c 1.310116,1.890794 4.030295,0.03174 2.743993,-1.850332"
           inkscape:connector-curvature="0" />
        <path
           id="path30817"
           style="fill:#704f38;fill-opacity:1;fill-rule:evenodd;stroke:none;stroke-width:1px;stroke-linecap:butt;stroke-linejoin:miter;stroke-opacity:1"
           d="m 66.045754,34.352679 c 1.310107,1.8908 4.030294,0.03174 2.743992,-1.850331"
           inkscape:connector-curvature="0" />
        <path
           id="path30819"
           style="fill:#704f38;fill-opacity:1;fill-rule:evenodd;stroke:none;stroke-width:1px;stroke-linecap:butt;stroke-linejoin:miter;stroke-opacity:1"
           d="m 71.698249,30.489486 c 1.310107,1.890799 4.030294,0.03174 2.743992,-1.850331"
           inkscape:connector-curvature="0" />
        <path
           id="path30821"
           style="fill:#704f38;fill-opacity:1;fill-rule:evenodd;stroke:none;stroke-width:1px;stroke-linecap:butt;stroke-linejoin:miter;stroke-opacity:1"
           d="m 53.322645,44.320574 2.28832,-1.563951 C 55.356628,42.634495 55.157338,42.456958 54.86517,42.013649 l -1.925434,1.315936 c 0.290081,0.453697 0.361343,0.707521 0.382909,0.990989 z"
           inkscape:connector-curvature="0" />
        <path
           id="path30825"
           style="fill:#704f38;fill-opacity:1;fill-rule:evenodd;stroke:none;stroke-width:1px;stroke-linecap:butt;stroke-linejoin:miter;stroke-opacity:1"
           d="m 69.672542,33.152512 2.288321,-1.563951 c -0.254338,-0.122128 -0.453629,-0.299666 -0.745796,-0.742974 l -1.925434,1.315936 c 0.290081,0.453697 0.361343,0.707521 0.382909,0.990989 z"
           inkscape:connector-curvature="0" />
        <path
           id="path30841"
           style="fill:#704f38;fill-opacity:1;fill-rule:evenodd;stroke:none;stroke-width:1px;stroke-linecap:butt;stroke-linejoin:miter;stroke-opacity:1"
           d="m 65.33429,24.241724 c -0.11029,0.296123 -0.21996,0.557809 -0.131485,0.687262 l 3.616972,5.286915 c 0.2431,0.2486 0.475997,0.158067 0.739429,0.207603 l -0.977364,0.657077 -3.961185,-5.769838 c -0.07815,-0.114345 -0.372113,-0.10984 -0.681911,-0.114571 l 1.395537,-0.954434 z"
           inkscape:connector-curvature="0" />
        <path
           id="path30827"
           style="fill:#704f38;fill-opacity:1;fill-rule:evenodd;stroke:none;stroke-width:1px;stroke-linecap:butt;stroke-linejoin:miter;stroke-opacity:1"
           d="M 42.82878,38.399369 70.244737,19.661953 70.835801,20.526778 43.427118,39.259222 42.828789,38.399363 Z"
           inkscape:connector-curvature="0" />
        <path
           id="path30829"
           style="fill:#704f38;fill-opacity:1;fill-rule:evenodd;stroke:none;stroke-width:1px;stroke-linecap:butt;stroke-linejoin:miter;stroke-opacity:1"
           d="m 58.562645,28.862802 c 0.315959,0.0048 0.599608,-0.0023 0.688083,0.127131 l 1.964466,2.879657 c 0.143327,0.31679 -0.02563,0.5009 -0.07516,0.764333 l 1.395842,-0.953987 c -0.26403,-0.04965 -0.496961,0.05501 -0.738152,-0.198261 l -1.979862,-2.89547 c -0.07815,-0.114345 0.03282,-0.386594 0.140944,-0.676951 l -1.396147,0.95354 z"
           inkscape:connector-curvature="0" />
        <path
           id="path30833"
           style="fill:#704f38;fill-opacity:1;fill-rule:evenodd;stroke:none;stroke-width:1px;stroke-linecap:butt;stroke-linejoin:miter;stroke-opacity:1"
           d="m 53.191881,32.527102 c 0.315959,0.0048 0.599606,-0.0023 0.688082,0.127131 l 1.964465,2.879657 c 0.143319,0.316796 -0.02563,0.500901 -0.07516,0.764333 l 1.395842,-0.953988 c -0.26403,-0.04965 -0.49696,0.05501 -0.738152,-0.19826 l -1.979863,-2.895469 c -0.07815,-0.114345 0.03283,-0.386596 0.140945,-0.676952 l -1.396147,0.953541 z"
           inkscape:connector-curvature="0" />
        <path
           id="path30839"
           style="fill:#704f38;fill-opacity:1;fill-rule:evenodd;stroke:none;stroke-width:1px;stroke-linecap:butt;stroke-linejoin:miter;stroke-opacity:1"
           d="m 47.867224,36.179577 c 0.315959,0.0048 0.599607,-0.0023 0.688082,0.127131 l 3.612018,5.2903 c 0.143327,0.31679 -0.02562,0.5009 -0.07516,0.764333 l 0.967208,-0.671939 -3.936929,-5.786416 c -0.07815,-0.114345 0.03283,-0.386594 0.140944,-0.676951 l -1.396146,0.95354 z"
           inkscape:connector-curvature="0" />
        <path
           id="path30845"
           style="fill:#704f38;fill-opacity:1;fill-rule:evenodd;stroke:none;stroke-width:1px;stroke-linecap:butt;stroke-linejoin:miter;stroke-opacity:1"
           d="m 67.702448,22.623208 c 0.315959,0.0048 0.599607,-0.0023 0.688082,0.12713 l 3.612018,5.2903 c 0.143327,0.31679 -0.02562,0.5009 -0.07516,0.764334 l 0.967208,-0.671939 -4.223525,-6.166958 -0.96857,0.657123 z"
           inkscape:connector-curvature="0" />
        <path
           id="path30849"
           style="fill:#704f38;fill-opacity:1;fill-rule:evenodd;stroke:none;stroke-width:1px;stroke-linecap:butt;stroke-linejoin:miter;stroke-opacity:1"
           d="m 46.564737,37.062634 c -0.11029,0.296124 -0.21996,0.55781 -0.131485,0.687264 l 3.616971,5.286914 c 0.243093,0.248606 0.475997,0.158068 0.73943,0.207602 l -0.972398,0.664345 -4.216614,-6.182367 0.964057,-0.663729 z"
           inkscape:connector-curvature="0" />
        <path
           id="path30853"
           style="fill:#704f38;fill-opacity:1;fill-rule:evenodd;stroke:none;stroke-width:1px;stroke-linecap:butt;stroke-linejoin:miter;stroke-opacity:1"
           d="m 43.949677,38.835203 0.667179,4.955493 1.529441,2.237827 c 0.27621,0.404142 1.040567,0.499365 1.403622,0.249572 L 75.928075,26.883064 c 0.356625,-0.243735 0.499439,-1.073399 0.277313,-1.398405 l -1.554305,-2.274208 -4.387534,-2.38052 -0.538764,0.368219 2.973036,1.630653 c 0.772951,0.667039 0.345279,1.475386 0.08761,1.826228 l -1.599719,1.083638 1.673257,2.420021 -4.251868,2.905937 -1.660166,-2.4291 -15.57329,10.643554 1.657889,2.425768 -3.190589,2.180606 -1.655673,-2.422525 -1.605022,1.096951 c -0.363954,0.248744 -1.277037,0.231938 -1.618708,-0.740963 l -0.479028,-3.347929 -0.532857,0.36418 z"
           inkscape:connector-curvature="0" />
        <path
           id="path30857"
           style="fill:#704f38;fill-opacity:1;fill-rule:evenodd;stroke:none;stroke-width:1px;stroke-linecap:butt;stroke-linejoin:miter;stroke-opacity:1"
           d="m 51.112255,38.771941 c 0.243092,0.248606 0.473803,0.142036 0.737237,0.191571 -0.321736,0.219018 -0.846781,0.572675 -0.86825,0.543744 L 50.667181,39.084065 51.112233,38.7719 Z"
           inkscape:connector-curvature="0" />
        <path
           id="path31750"
           style="fill:#704f38;fill-opacity:1;fill-rule:evenodd;stroke-width:1px;stroke-linecap:butt;stroke-linejoin:miter;stroke-opacity:1"
           d="m 53.656909,31.024864 -0.50239,-0.106908 -5.417284,3.702439 -0.04493,0.470502 5.96458,-4.066071 z"
           inkscape:connector-curvature="0" />
      </g>
      <path
         inkscape:transform-center-y="-15.059602"
         inkscape:transform-center-x="-17.522359"
         style="opacity:1;fill:#704f38;fill-opacity:1;stroke:#645f5e;stroke-width:0.08224948;stroke-linejoin:miter;stroke-miterlimit:4;stroke-dasharray:none;stroke-opacity:1"
         d="m 285.71477,695.13276 c -0.083,-0.004 -0.23879,-0.0644 -0.34623,-0.13334 -0.17812,-0.11432 -0.20663,-0.15879 -0.32335,-0.50442 -0.0704,-0.20847 -0.16014,-0.51006 -0.1994,-0.67018 l -0.0714,-0.29113 -3.21509,0.75421 -3.21508,0.75421 0.12188,0.62604 c 0.13655,0.70141 0.12126,0.88288 -0.0921,1.0931 -0.0907,0.0893 -0.21288,0.14615 -0.41825,0.19446 -0.25786,0.0606 -0.31223,0.0565 -0.48841,-0.0375 -0.24414,-0.13026 -0.32146,-0.27175 -0.52872,-0.96753 l -0.16115,-0.54101 -0.46057,0.10805 -0.46057,0.10804 -0.69993,-2.98369 -0.69993,-2.98369 -0.19771,-1.99044 c -0.2782,-2.80082 -0.27673,-2.94743 0.0338,-3.37334 0.41464,-0.56869 1.64954,-1.32552 3.00554,-1.842 0.56261,-0.21429 2.12304,-0.59165 2.70496,-0.65415 0.96643,-0.10378 2.31189,-0.0697 2.9303,0.0741 0.44356,0.1032 0.80345,0.26959 1.01506,0.46929 0.23348,0.22035 0.40764,0.63337 1.6026,3.80047 l 0.39533,1.04778 0.67469,2.87606 0.67468,2.87607 -0.48406,0.11355 -0.48406,0.11356 0.11779,0.60044 c 0.12438,0.63398 0.11645,0.80056 -0.0494,1.03925 -0.0909,0.1308 -0.32657,0.29585 -0.45458,0.31838 -0.0417,0.007 -0.14363,0.01 -0.22661,0.005 z m -8.14695,-1.7745 c 0.32724,-0.25228 0.43832,-0.6571 0.29866,-1.08839 -0.15619,-0.48237 -0.59791,-0.71924 -1.115,-0.59794 -0.53248,0.12491 -0.81131,0.5329 -0.72668,1.06332 0.0761,0.47718 0.35335,0.77543 0.78048,0.83968 0.2043,0.0307 0.58018,-0.0761 0.76254,-0.21667 z m 8.00507,-1.89989 c 0.0992,-0.0863 0.22234,-0.2612 0.27372,-0.38865 0.0795,-0.19717 0.0833,-0.27465 0.0254,-0.51943 -0.0819,-0.34684 -0.25293,-0.56573 -0.55643,-0.71235 -0.19612,-0.0947 -0.23453,-0.0954 -0.59779,-0.0102 -0.36396,0.0854 -0.39721,0.10263 -0.5321,0.27648 -0.36351,0.46844 -0.29461,1.05467 0.16731,1.42349 0.32497,0.25948 0.87814,0.22802 1.21985,-0.0694 z m -0.5906,-3.85245 c 0.10766,-0.24033 0.0908,-0.30478 -0.46436,-1.77784 -0.56758,-1.50594 -0.84552,-2.1563 -0.97354,-2.27806 -0.0591,-0.0562 -0.17291,-0.0924 -0.28303,-0.0901 -0.10129,0.002 -1.92809,0.41306 -4.05956,0.91307 -4.19986,0.98522 -4.167,0.97546 -4.20877,1.24807 -0.0238,0.15513 0.0283,0.91488 0.1534,2.24019 0.13995,1.48201 0.17113,1.68742 0.2788,1.83627 0.20864,0.28845 -0.13948,0.34778 4.9116,-0.83713 l 4.56299,-1.07041 0.0825,-0.18409 z m -3.02172,-4.39877 c 0.28135,-0.24766 0.0966,-0.93959 -0.2671,-1.00029 -0.25952,-0.0433 -5.38675,1.1627 -5.60053,1.3174 -0.18926,0.1369 -0.24341,0.40629 -0.13588,0.67608 0.098,0.24582 0.1924,0.32174 0.40039,0.32191 0.25949,2.1e-4 5.50848,-1.23171 5.60313,-1.31506 z"
         id="path6353"
         inkscape:connector-curvature="0" />
      <path
         inkscape:connector-curvature="0"
         style="fill:#fff5ef;fill-opacity:1;stroke:#6f4e37;stroke-width:0.37776971;stroke-miterlimit:4;stroke-dasharray:none;stroke-opacity:0.99215686"
         id="path5466"
         d="m 343.61527,700.73714 c -2.84082,-2.30062 -6.84141,-2.3384 -9.47446,-2.04751 0.0756,-1.83597 0.11711,-3.71348 0.11711,-5.66655 l -69.4643,0 c 0,18.77515 2.84083,32.32198 20.81889,37.37653 l 27.82652,0 c 7.12096,-1.9984 11.84308,-5.35677 14.97479,-9.82201 6.82252,-0.13222 17.79673,-2.81816 18.2085,-12.23974 0.17755,-4.12524 -1.53752,-6.41453 -3.00705,-7.60072 z m -12.34173,14.45347 c 1.30708,-3.35838 2.08151,-7.13607 2.50839,-11.28776 1.84351,-0.30222 5.02056,-0.49488 6.62608,0.8122 0.29466,0.24177 1.21264,0.98976 1.10686,3.40371 -0.21532,4.88078 -6.27475,6.5203 -10.24133,7.07185 z" />
      <g
         style="fill:#704f38;fill-opacity:1"
         transform="matrix(0.01904233,0,0,0.01904233,285.02538,664.29854)"
         id="g4926">
        <g
           style="fill:#704f38;fill-opacity:1"
           id="g4928">
          <path
             style="fill:#704f38;fill-opacity:1"
             inkscape:connector-curvature="0"
             d="M 720.06845,610.80262 564.54776,455.28189 937.79741,175.34464 828.93294,66.480155 362.37085,253.10498 215.55933,106.20457 C 173.16883,63.902954 114.07097,53.771894 84.122132,83.720735 54.173292,113.5807 64.304352,172.76744 106.69485,215.06907 l 146.81153,146.9004 -186.624828,466.56209 108.864478,108.8644 279.93724,-373.24959 155.5207,155.52069 0,217.7289 108.86448,0 54.38781,-163.2522 163.34115,-54.4767 0,-108.86444 -217.72896,0 0,0 z"
             id="path4930" />
        </g>
      </g>
    </g>
  </g>
</svg>
