<?xml version="1.0" encoding="UTF-8" standalone="no"?>
<!-- Created with Inkscape (http://www.inkscape.org/) -->

<svg
   xmlns:dc="http://purl.org/dc/elements/1.1/"
   xmlns:cc="http://creativecommons.org/ns#"
   xmlns:rdf="http://www.w3.org/1999/02/22-rdf-syntax-ns#"
   xmlns:svg="http://www.w3.org/2000/svg"
   xmlns="http://www.w3.org/2000/svg"
   xmlns:sodipodi="http://sodipodi.sourceforge.net/DTD/sodipodi-0.dtd"
   xmlns:inkscape="http://www.inkscape.org/namespaces/inkscape"
   width="300"
   height="45"
   viewBox="0 0 300 45.000001"
   id="svg4925"
   version="1.1"
   inkscape:version="0.91 r13725"
   sodipodi:docname="cafe_title.svg">
  <defs
     id="defs4927" />
  <sodipodi:namedview
     id="base"
     pagecolor="#ffffff"
     bordercolor="#666666"
     borderopacity="1.0"
     inkscape:pageopacity="0.0"
     inkscape:pageshadow="2"
     inkscape:zoom="1.4"
     inkscape:cx="55.031951"
     inkscape:cy="133.0989"
     inkscape:document-units="px"
     inkscape:current-layer="layer1"
     showgrid="false"
     units="px"
     inkscape:window-width="1920"
     inkscape:window-height="1017"
     inkscape:window-x="-8"
     inkscape:window-y="-8"
     inkscape:window-maximized="1" />
  <metadata
     id="metadata4930">
    <rdf:RDF>
      <cc:Work
         rdf:about="">
        <dc:format>image/svg+xml</dc:format>
        <dc:type
           rdf:resource="http://purl.org/dc/dcmitype/StillImage" />
        <dc:title></dc:title>
      </cc:Work>
    </rdf:RDF>
  </metadata>
  <g
     inkscape:label="Livello 1"
     inkscape:groupmode="layer"
     id="layer1"
     transform="translate(0,-1007.3622)">
    <g
       id="g5517"
       transform="translate(-212.66429,585.31777)">
      <g
         style="fill:#6f4e37;fill-opacity:0.99215686;stroke:#6f4e37;stroke-opacity:0.99215686"
         id="g4858"
         transform="matrix(0.7159604,0,0,0.67903125,380.61761,364.15332)">
        <path
           style="fill:#6f4e37;fill-opacity:0.99215686;stroke:#6f4e37;stroke-opacity:0.99215686"
           id="path4860"
           d="m 154.9,95.9 c -2.1,-0.2 0.3,1.8 0.3,10.8 0,12 -3.5,18.4 -3.5,28.4 0,6.5 0.7,12.2 1.6,12.2 9.9,0 18,-11.5 18,-25.7 0,-13.6 -7.2,-24.6 -16.4,-25.7 z"
           class="st2"
           inkscape:connector-curvature="0" />
        <path
           style="fill:#6f4e37;fill-opacity:0.99215686;stroke:#6f4e37;stroke-opacity:0.99215686"
           id="path4862"
           d="m 148.9,147.2 c 2.1,0.2 -0.3,-1.8 -0.3,-10.8 0,-12 3.5,-18.4 3.5,-28.4 0,-6.5 -0.7,-12.2 -1.6,-12.2 -9.9,0 -18,11.5 -18,25.7 0,13.5 7.2,24.5 16.4,25.7 z"
           class="st2"
           inkscape:connector-curvature="0" />
        <path
           style="fill:#6f4e37;fill-opacity:0.99215686;stroke:#6f4e37;stroke-opacity:0.99215686"
           id="path4866"
           d="m 148,124.6 c 0.2,-1.4 0.5,-2.7 0.8,-4 0.8,-4.1 1.6,-7.9 1.6,-12.5 0,-5.4 -0.5,-9 -0.8,-10.4 -0.5,0 -1.1,0.1 -1.6,0.2 1.9,8.3 0.9,18.5 0,26.7 z"
           class="st3"
           inkscape:connector-curvature="0" />
        <path
           style="fill:#6f4e37;fill-opacity:0.99215686;stroke:#6f4e37;stroke-opacity:0.99215686"
           id="path4868"
           d="m 155.8,119.1 c -0.2,1.4 -0.5,2.7 -0.8,4 -0.8,4.1 -1.6,7.9 -1.6,12.5 0,5.4 0.5,9 0.8,10.4 0.5,0 1.1,-0.1 1.6,-0.2 -1.9,-8.3 -0.9,-18.6 0,-26.7 z"
           class="st4"
           inkscape:connector-curvature="0" />
        <path
           style="fill:#6f4e37;fill-opacity:0.99215686;stroke:#6f4e37;stroke-opacity:0.99215686"
           id="path4870"
           d="m 137.1,135.2 c -2.8,-10.9 -2.9,-18.7 0,-27.3 -1.8,3.9 -2.9,8.6 -2.9,13.7 0,5 1.1,9.7 2.9,13.6 z"
           class="st4"
           inkscape:connector-curvature="0" />
      </g>
      <g
         transform="matrix(3.1750487,0,0,3.1750487,297.5783,370.68569)"
         id="text6104"
         style="font-style:normal;font-weight:normal;font-size:38.58267593px;line-height:50%;font-family:sans-serif;letter-spacing:0px;word-spacing:0px;fill:#6f4e37;fill-opacity:0.99215686;stroke:none;stroke-width:1px;stroke-linecap:butt;stroke-linejoin:miter;stroke-opacity:0.99215686">
        <path
           inkscape:connector-curvature="0"
           id="path6109"
           style="font-style:normal;font-variant:normal;font-weight:normal;font-stretch:normal;font-size:16.87992096px;line-height:50%;font-family:'Book Antiqua';-inkscape-font-specification:'Book Antiqua, Normal';text-align:start;writing-mode:lr-tb;text-anchor:start;fill:#6f4e37;fill-opacity:0.99215686;stroke:none;stroke-opacity:0.99215686"
           d="m 40.459509,20.683424 -0.06594,-1.467103 Q 39.660021,18.730035 38.85229,18.491012 38.052802,18.25199 37.179134,18.25199 q -2.22538,0 -3.568851,1.351712 -1.335228,1.351713 -1.335228,3.618304 0,1.590734 0.675856,2.835299 0.684099,1.244564 1.936905,1.969874 1.252807,0.725309 2.64573,0.725309 1.104448,0 2.18417,-0.255507 0.80773,-0.189569 1.623703,-0.791246 l 0.173085,0.164843 q -0.173085,0.379139 -0.321444,0.76652 -0.964331,0.478044 -1.945147,0.725309 -0.972573,0.239022 -1.961631,0.239022 -2.027569,0 -3.568851,-0.783004 -1.533039,-0.783004 -2.357254,-2.159443 -0.824215,-1.384681 -0.824215,-3.123775 0,-1.739093 0.832457,-3.10729 0.832457,-1.376439 2.349012,-2.126474 1.524798,-0.758278 3.741936,-0.758278 1.162143,0 2.719909,0.379139 0.774762,0.181327 1.261049,0.271991 -0.370897,0.88191 -0.428592,2.489129 l -0.552224,0 z" />
        <path
           inkscape:connector-curvature="0"
           id="path6111"
           style="font-style:normal;font-variant:normal;font-weight:normal;font-stretch:normal;font-size:16.87992096px;line-height:50%;font-family:'Book Antiqua';-inkscape-font-specification:'Book Antiqua, Normal';text-align:start;writing-mode:lr-tb;text-anchor:start;fill:#6f4e37;fill-opacity:0.99215686;stroke:none;stroke-opacity:0.99215686"
           d="m 43.006333,23.70005 0.0082,-0.552224 -0.0082,-0.568708 0.898394,-0.511013 q 0.609919,-0.34617 1.063237,-0.478045 0.46156,-0.131874 0.980816,-0.131874 1.137416,0 1.829757,0.511013 0.700583,0.511013 0.840699,1.30226 0.09891,0.593434 0.123632,2.942447 0.01648,2.217138 0.09891,2.447918 0.08242,0.23078 0.412108,0.23078 l 0.642887,0 0,0.543982 q -0.939605,-0.05769 -1.310502,-0.05769 -0.46156,0 -1.236322,0.05769 l 0.0082,-0.733551 q 0,-0.354413 -0.0082,-0.717067 l -1.706125,1.302259 q -0.23078,0.173085 -0.453318,0.239023 -0.222538,0.07418 -0.618161,0.07418 -1.063237,0 -1.623703,-0.519255 -0.560466,-0.527498 -0.560466,-1.409408 0,-0.832457 0.395623,-1.450618 0.403865,-0.626403 1.137416,-0.923121 0.741794,-0.296717 3.428734,-0.774762 -0.01648,-1.046753 -0.46156,-1.566008 -0.560466,-0.65113 -1.598977,-0.65113 -0.395623,0 -0.741793,0.09891 -0.346171,0.09891 -0.642888,0.296717 -0.239022,0.585193 -0.436834,1.120933 l -0.46156,-0.123633 z m 4.343612,1.310502 q -2.291317,0.494529 -2.909478,0.931363 -0.618162,0.428592 -0.618162,1.335228 0,0.609919 0.354413,0.980816 0.354412,0.362654 0.914878,0.362654 0.618162,0 1.178628,-0.34617 0.568708,-0.34617 1.079721,-1.030269 l -0.01648,-1.829757 0.01648,-0.403865 z" />
        <path
           inkscape:connector-curvature="0"
           id="path6113"
           style="font-style:normal;font-variant:normal;font-weight:normal;font-stretch:normal;font-size:16.87992096px;line-height:50%;font-family:'Book Antiqua';-inkscape-font-specification:'Book Antiqua, Normal';text-align:start;writing-mode:lr-tb;text-anchor:start;fill:#6f4e37;fill-opacity:0.99215686;stroke:none;stroke-opacity:0.99215686"
           d="m 53.309019,22.900562 0,3.206196 q 0,2.307802 0.131874,2.579792 0.140117,0.271991 0.832457,0.271991 l 0.725309,0 0,0.478045 q -1.351712,-0.06594 -1.936905,-0.06594 l -2.604519,0.06594 0,-0.478045 0.552224,0 q 0.642888,0 0.758278,-0.255506 0.156601,-0.34617 0.156601,-2.596277 l 0,-3.206196 -1.18687,0.08242 0,-0.34617 q 0.585193,-0.288475 1.18687,-0.609919 l 0,-1.046753 q 0,-0.799488 0.214296,-1.302259 0.222538,-0.502771 0.88191,-1.18687 0.873667,-0.914878 1.359954,-1.195111 0.321444,-0.18957 0.807731,-0.18957 0.321444,0 0.717067,0.107148 -0.02473,0.42035 -0.02473,0.675856 0,0.255507 0.02473,0.700583 l -0.206054,0.09066 q -0.486287,-0.428592 -1.11269,-0.428592 -0.692341,0 -0.989058,0.469802 -0.288475,0.469803 -0.288475,2.291318 l 0,1.096206 q 1.335228,-0.0082 2.184169,-0.08242 l 0.05769,0.08242 -0.131874,0.791246 -1.013784,-0.02473 q -0.370897,0 -1.096206,0.02473 z" />
        <path
           inkscape:connector-curvature="0"
           id="path6115"
           style="font-style:normal;font-variant:normal;font-weight:normal;font-stretch:normal;font-size:16.87992096px;line-height:50%;font-family:'Book Antiqua';-inkscape-font-specification:'Book Antiqua, Normal';text-align:start;writing-mode:lr-tb;text-anchor:start;fill:#fff5ef;fill-opacity:1;stroke:#704f38;stroke-width:0.1;stroke-miterlimit:4;stroke-dasharray:none;stroke-opacity:1"
           d="m 57.941107,25.447386 q 0.04121,1.623703 0.832457,2.464402 0.791246,0.8407 2.077022,0.8407 0.57695,0 1.145658,-0.18957 0.568709,-0.189569 1.129175,-0.568708 l 0.140116,0.123632 -0.263748,0.692341 q -0.684099,0.395623 -1.409408,0.593434 -0.725309,0.197812 -1.491829,0.197812 -1.673156,0 -2.703425,-1.054995 -1.022026,-1.063237 -1.022026,-2.87651 0,-1.384681 0.57695,-2.398465 0.379139,-0.667614 1.401166,-1.236323 1.022026,-0.568708 1.986357,-0.568708 1.458861,0 2.307802,0.857184 0.857184,0.857183 0.857184,2.398465 l -0.01649,0.486287 q -0.543982,0.131874 -1.03851,0.173085 -0.88191,0.06594 -2.447919,0.06594 l -2.060537,0 z m 0.02473,-0.618161 q 1.277533,0.05769 2.818814,0.05769 0.618162,0 1.195112,-0.05769 l 0,-0.461561 q 0,-0.725309 -0.288475,-1.376438 -0.181327,-0.403866 -0.634646,-0.667614 -0.453318,-0.271991 -1.046753,-0.271991 -0.92312,0 -1.475344,0.675856 -0.552224,0.675856 -0.568708,2.101748 z" />
        <path
           inkscape:connector-curvature="0"
           id="path6117"
           style="font-style:normal;font-variant:normal;font-weight:normal;font-stretch:normal;font-size:16.87992096px;line-height:50%;font-family:'Book Antiqua';-inkscape-font-specification:'Book Antiqua, Normal';text-align:start;writing-mode:lr-tb;text-anchor:start;fill:#6f4e37;fill-opacity:0.99215686;stroke:none;stroke-opacity:0.99215686"
           d="M 65.441463,22.521423 65.202441,18.82894 q -0.02473,-0.337928 -0.02473,-0.535739 0,-0.362655 0.1566,-0.552224 0.164843,-0.197812 0.395624,-0.197812 0.239022,0 0.395623,0.18957 0.156601,0.189569 0.156601,0.568708 0,0.189569 -0.01649,0.527497 l -0.247264,3.692483 q -0.02473,0.354413 -0.296718,0.354413 -0.255506,0 -0.280233,-0.354413 z" />
      </g>
      <g
         id="text4187"
         style="font-style:normal;font-variant:normal;font-weight:normal;font-stretch:normal;font-size:54.49327469px;line-height:100%;font-family:'Book Antiqua';-inkscape-font-specification:'Book Antiqua, Normal';text-align:start;letter-spacing:0px;word-spacing:0px;writing-mode:lr-tb;text-anchor:start;fill:#704f38;fill-opacity:1;stroke:none;stroke-width:1px;stroke-linecap:butt;stroke-linejoin:miter;stroke-opacity:1"
         transform="translate(129.25513,391.18251)">
        <path
           id="path4940"
           style="font-style:normal;font-variant:normal;font-weight:normal;font-stretch:normal;font-size:54.49327469px;line-height:100%;font-family:'Book Antiqua';-inkscape-font-specification:'Book Antiqua, Normal';text-align:start;writing-mode:lr-tb;text-anchor:start;fill:#704f38;fill-opacity:1"
           d="m 106.85012,36.747469 q -0.29269,3.991207 -0.29269,8.408142 l 0,15.166586 q 0,8.461358 0.42573,9.339423 0.42573,0.851458 3.03332,0.851458 l 1.9956,0 0,1.676306 q -4.70962,-0.186256 -7.98241,-0.186256 -3.2994,0 -7.929199,0.186256 l 0,-1.676306 2.235076,0 q 1.756133,0 2.288293,-0.452337 0.53216,-0.478945 0.6652,-1.835955 0.26608,-3.113141 0.26608,-8.03563 l 0,-15.193193 q 0,-4.496759 -0.18626,-8.248494 l -2.714017,0 q -6.572186,0 -7.237388,0.319297 -0.665201,0.292688 -0.878065,2.368116 l -0.372513,3.565478 -1.676306,0 0.05322,-3.166357 q 0,-1.91578 -0.319297,-5.507866 14.368336,0.186257 16.896106,0.186257 l 14.71425,-0.186257 q -0.50556,4.49676 -0.58538,8.674223 l -1.6497,0 -0.26608,-3.485654 q -0.15965,-1.809347 -0.45234,-2.128644 -0.29268,-0.345904 -1.30379,-0.425728 -2.92689,-0.212865 -6.65201,-0.212865 l -2.07543,0 z"
           inkscape:connector-curvature="0" />
        <path
           id="path4942"
           style="font-style:normal;font-variant:normal;font-weight:normal;font-stretch:normal;font-size:54.49327469px;line-height:100%;font-family:'Book Antiqua';-inkscape-font-specification:'Book Antiqua, Normal';text-align:start;writing-mode:lr-tb;text-anchor:start;fill:#704f38;fill-opacity:1"
           d="m 130.85058,52.472824 q 1.06432,-1.011106 2.3149,-2.660805 1.49005,-1.942387 2.76723,-2.660804 1.27719,-0.718418 2.68742,-0.718418 1.46344,0 2.23507,0.345905 0.37252,0.159648 0.37252,0.505553 l -0.0266,0.26608 q -0.39912,2.155252 -0.45234,6.040026 l -1.19736,0 q -0.61199,-1.35701 -1.46344,-1.915779 -0.82485,-0.558769 -1.99561,-0.558769 -1.56987,0 -2.92688,1.064322 -1.3304,1.064322 -1.78274,2.980101 -0.45234,1.915779 -0.45234,7.530077 0,3.698518 0.29269,6.226282 0.10643,0.931281 0.53216,1.170754 1.01111,0.558769 2.9801,0.558769 l 1.59648,0 0,1.543266 q -4.07103,-0.186256 -7.71633,-0.186256 -3.53887,0 -6.99791,0.186256 l 0,-1.543266 2.55437,-0.212865 q 1.35701,-0.106432 1.70291,-0.505552 0.37252,-0.399121 0.47895,-2.580981 0.18625,-3.831558 0.18625,-9.099951 0,-6.412539 -0.50555,-7.530076 -0.3459,-0.718418 -2.18186,-0.718418 l -2.23507,0 0,-1.543266 q 2.58098,-0.292689 4.60319,-0.745025 2.02221,-0.478945 3.59208,-1.197362 0.37252,-0.186257 0.61199,-0.186257 0.29269,0 0.39912,0.159649 0.10643,0.159648 0.10643,0.718417 l -0.0798,5.268393 z"
           inkscape:connector-curvature="0" />
        <path
           id="path4944"
           style="font-style:normal;font-variant:normal;font-weight:normal;font-stretch:normal;font-size:54.49327469px;line-height:100%;font-family:'Book Antiqua';-inkscape-font-specification:'Book Antiqua, Normal';text-align:start;writing-mode:lr-tb;text-anchor:start;fill:#704f38;fill-opacity:1"
           d="m 146.04377,53.670186 0.0266,-1.782739 -0.0266,-1.835955 2.90028,-1.649699 q 1.969,-1.117538 3.43244,-1.543267 1.49005,-0.425729 3.16636,-0.425729 3.67191,0 5.90698,1.649699 2.26168,1.649699 2.71402,4.204071 0.3193,1.915779 0.39912,9.499072 0.0532,7.157564 0.3193,7.902589 0.26608,0.745025 1.3304,0.745025 l 2.07543,0 0,1.756131 q -3.03332,-0.186256 -4.23068,-0.186256 -1.49005,0 -3.99121,0.186256 l 0.0266,-2.368116 q 0,-1.144145 -0.0266,-2.314899 l -5.50786,4.204071 q -0.74503,0.558768 -1.46344,0.771633 -0.71842,0.239472 -1.99561,0.239472 -3.43244,0 -5.24178,-1.676307 -1.80935,-1.702914 -1.80935,-4.549975 0,-2.687413 1.27719,-4.683016 1.30379,-2.022211 3.67191,-2.980101 2.39472,-0.957889 11.06894,-2.501156 -0.0532,-3.379222 -1.49005,-5.055528 -1.80934,-2.102036 -5.16196,-2.102036 -1.27718,0 -2.39472,0.319297 -1.11754,0.319296 -2.07543,0.957889 -0.77163,1.889171 -1.41023,3.618694 l -1.49005,-0.39912 z m 14.02244,4.230679 q -7.39703,1.596482 -9.39264,3.006709 -1.9956,1.383618 -1.9956,4.310503 0,1.968995 1.14415,3.166357 1.14414,1.170754 2.95349,1.170754 1.9956,0 3.80495,-1.117538 1.83595,-1.117538 3.48565,-3.326005 l -0.0532,-5.906986 0.0532,-1.303794 z"
           inkscape:connector-curvature="0" />
        <path
           id="path4946"
           style="font-style:normal;font-variant:normal;font-weight:normal;font-stretch:normal;font-size:54.49327469px;line-height:100%;font-family:'Book Antiqua';-inkscape-font-specification:'Book Antiqua, Normal';text-align:start;writing-mode:lr-tb;text-anchor:start;fill:#704f38;fill-opacity:1"
           d="m 179.11757,51.541542 4.01782,-3.565478 q 0.71841,-0.638593 1.51665,-0.931281 1.75613,-0.585377 3.51227,-0.585377 2.84706,0 4.92248,1.170753 2.07543,1.144146 2.9801,3.006709 0.90468,1.835956 0.90468,5.773946 l -0.13304,8.381534 q 0,4.337111 0.37251,5.002312 0.50555,0.851458 1.969,0.851458 l 1.91577,0 0,1.543266 q -2.84706,-0.186256 -4.92248,-0.186256 -2.02221,0 -4.33711,0.186256 0.50555,-5.188568 0.50555,-14.022439 0,-3.565478 -0.63859,-5.055528 -0.61199,-1.490051 -2.10204,-2.394724 -1.46344,-0.904674 -3.53887,-0.904674 -2.58098,0 -4.39033,1.303794 -1.78274,1.303794 -2.20847,2.873669 -0.26608,1.037714 -0.26608,5.428041 0,4.869272 0.0798,9.046735 0.0266,1.250578 0.37251,1.569875 0.6652,0.611985 2.18186,0.611985 l 1.88917,0 0,1.543266 q -4.49676,-0.186256 -7.15756,-0.186256 -2.82045,0 -6.41254,0.186256 l 0,-1.543266 1.91578,0 q 1.96899,0 2.28829,-0.904674 0.34591,-0.931281 0.34591,-11.068946 0,-4.549976 -0.10644,-7.130956 -0.0532,-0.851457 -0.42573,-1.170754 -0.37251,-0.319296 -2.10203,-0.319296 l -1.91578,0 0,-1.516659 q 2.28829,-0.26608 4.09764,-0.718417 1.80935,-0.452337 4.07103,-1.383619 0.23947,-0.106432 0.45234,-0.106432 0.42572,0 0.42572,0.611985 l -0.0266,1.011106 -0.0532,3.592086 z"
           inkscape:connector-curvature="0" />
        <path
           id="path4948"
           style="font-style:normal;font-variant:normal;font-weight:normal;font-stretch:normal;font-size:54.49327469px;line-height:100%;font-family:'Book Antiqua';-inkscape-font-specification:'Book Antiqua, Normal';text-align:start;writing-mode:lr-tb;text-anchor:start;fill:#704f38;fill-opacity:1"
           d="m 205.24667,64.047323 0,1.729523 q 0,2.075427 0.37251,2.58098 0.69181,0.851457 2.68742,1.649699 2.02221,0.798241 4.15085,0.798241 2.74063,0 4.47015,-1.463442 1.72952,-1.490051 1.72952,-3.53887 0,-1.623091 -1.0111,-2.607589 -1.01111,-0.984497 -3.85817,-1.569874 -5.295,-1.064322 -6.99791,-1.862563 -1.70292,-0.798242 -2.55438,-2.128644 -0.85145,-1.330402 -0.85145,-3.219573 0,-3.53887 2.55437,-5.747338 2.58098,-2.208467 7.2906,-2.208467 3.72513,0 7.42365,1.49005 -0.21287,1.809347 -0.34591,6.066634 l -1.56987,0 q -0.0532,-2.341508 -0.50555,-3.086533 -0.61199,-0.984498 -2.23508,-1.782739 -1.62309,-0.798241 -3.45905,-0.798241 -2.42133,0 -3.88477,1.250578 -1.43683,1.22397 -1.43683,3.086533 0,1.782739 1.14414,2.687412 1.14415,0.931282 6.33272,1.968996 3.83155,0.771633 5.05552,1.436834 1.22397,0.665201 1.969,2.022211 0.74503,1.357011 0.74503,3.113142 0,3.592086 -3.08654,6.199674 -3.05992,2.607588 -8.19528,2.607588 -3.27279,0 -7.34382,-1.037713 -0.71841,-0.186257 -0.71841,-0.558769 l 0.0798,-0.372513 q 0.10643,-0.399121 0.18626,-1.410226 0.23947,-2.580981 0.23947,-4.017815 l -0.0266,-1.277186 1.6497,0 z"
           inkscape:connector-curvature="0" />
        <path
           id="path4950"
           style="font-style:normal;font-variant:normal;font-weight:normal;font-stretch:normal;font-size:54.49327469px;line-height:100%;font-family:'Book Antiqua';-inkscape-font-specification:'Book Antiqua, Normal';text-align:start;writing-mode:lr-tb;text-anchor:start;fill:#704f38;fill-opacity:1"
           d="m 232.25383,34.56561 q 1.22397,0 2.10204,0.904673 0.87806,0.878066 0.87806,2.128644 0,1.250578 -0.87806,2.128643 -0.87807,0.878066 -2.10204,0.878066 -1.25058,0 -2.12864,-0.878066 -0.87807,-0.878065 -0.87807,-2.128643 0,-1.250578 0.87807,-2.128644 0.87806,-0.904673 2.12864,-0.904673 z m 2.12865,11.787363 0.63859,0.399121 q -0.18626,1.995603 -0.23947,4.390327 -0.18626,7.769549 -0.18626,11.468067 0,3.459046 0.23947,5.906986 0.10643,0.95789 0.50556,1.330402 0.39912,0.372513 1.91577,0.558769 l 1.80935,0.239473 0,1.543266 q -3.88477,-0.186256 -7.07774,-0.186256 -3.13975,0 -6.33271,0.186256 l 0,-1.543266 2.28829,-0.239473 q 1.3304,-0.106432 1.62309,-0.478944 0.3193,-0.399121 0.39912,-2.580981 0.13304,-3.379221 0.13304,-9.312815 0,-4.124247 -0.13304,-6.359323 -0.0532,-0.824849 -0.47894,-1.170754 -0.39912,-0.345904 -1.83596,-0.345904 l -1.9956,0 0,-1.569875 q 3.24618,-0.478945 4.76284,-0.878065 1.54326,-0.399121 3.9646,-1.357011 z"
           inkscape:connector-curvature="0" />
        <path
           id="path4952"
           style="font-style:normal;font-variant:normal;font-weight:normal;font-stretch:normal;font-size:54.49327469px;line-height:100%;font-family:'Book Antiqua';-inkscape-font-specification:'Book Antiqua, Normal';text-align:start;writing-mode:lr-tb;text-anchor:start;fill:#704f38;fill-opacity:1"
           d="m 250.02801,51.275462 0,10.430353 q 0,4.071031 0.26608,5.215177 0.26608,1.144145 1.06432,1.782739 0.82485,0.638593 2.07543,0.638593 0.77163,0 1.49005,-0.292689 0.74503,-0.319296 1.46344,-0.931281 l 0.77164,0.931281 -2.58098,3.059925 q -0.85146,0.292689 -1.6497,0.452337 -0.79824,0.159648 -1.54327,0.159648 -1.969,0 -3.32601,-0.718417 -1.35701,-0.691809 -1.96899,-1.809347 -0.61199,-1.144146 -0.61199,-3.432438 l 0.0798,-5.135352 0,-10.111057 q -2.04882,0 -4.23068,0.186256 l 0,-1.144146 q 2.28829,-0.878065 4.23068,-1.835955 -0.0266,-3.80495 -0.21287,-8.248493 3.08654,-1.303795 4.44355,-2.102036 l 0.69181,0.532161 q -0.21287,2.075427 -0.45234,9.818368 3.24618,0 5.295,-0.07982 l 2.12864,-0.106432 -0.29268,2.740629 -1.09093,-0.02661 -5.10875,0.02661 -0.93128,0 z"
           inkscape:connector-curvature="0" />
      </g>
    </g>
  </g>
</svg>
