<?xml version="1.0" encoding="UTF-8" standalone="no"?>
<!-- Generator: Adobe Illustrator 16.0.0, SVG Export Plug-In . SVG Version: 6.00 Build 0)  -->

<svg
   xmlns:dc="http://purl.org/dc/elements/1.1/"
   xmlns:cc="http://creativecommons.org/ns#"
   xmlns:rdf="http://www.w3.org/1999/02/22-rdf-syntax-ns#"
   xmlns:svg="http://www.w3.org/2000/svg"
   xmlns="http://www.w3.org/2000/svg"
   xmlns:sodipodi="http://sodipodi.sourceforge.net/DTD/sodipodi-0.dtd"
   xmlns:inkscape="http://www.inkscape.org/namespaces/inkscape"
   version="1.1"
   id="Capa_1"
   x="0px"
   y="0px"
   width="380"
   height="75"
   viewBox="0 0 380 74.999996"
   xml:space="preserve"
   inkscape:version="0.91 r13725"
   sodipodi:docname="logoTransitCafe.svg"
   enable-background="new"><title
     id="title7916">logo-cafe</title><metadata
     id="metadata5506"><rdf:RDF><cc:Work
         rdf:about=""><dc:format>image/svg+xml</dc:format><dc:type
           rdf:resource="http://purl.org/dc/dcmitype/StillImage" /><dc:title>logo-cafe</dc:title></cc:Work></rdf:RDF></metadata><defs
     id="defs5504" /><sodipodi:namedview
     pagecolor="#ffffff"
     bordercolor="#666666"
     borderopacity="1"
     objecttolerance="10"
     gridtolerance="10"
     guidetolerance="10"
     inkscape:pageopacity="0"
     inkscape:pageshadow="2"
     inkscape:window-width="1920"
     inkscape:window-height="1017"
     id="namedview5502"
     showgrid="false"
     showguides="false"
     inkscape:zoom="2.7232863"
     inkscape:cx="216.67181"
     inkscape:cy="68.793585"
     inkscape:window-x="-8"
     inkscape:window-y="-8"
     inkscape:window-maximized="1"
     inkscape:current-layer="Capa_1" /><g
     inkscape:groupmode="layer"
     id="layer2"
     inkscape:label="Tram"
     style="" /><g
     id="g5472"
     transform="translate(0,53.334999)" /><g
     id="g5474"
     transform="translate(0,53.334999)" /><g
     id="g5476"
     transform="translate(0,53.334999)" /><g
     id="g5478"
     transform="translate(0,53.334999)" /><g
     id="g5480"
     transform="translate(0,53.334999)" /><g
     id="g5482"
     transform="translate(0,53.334999)" /><g
     id="g5484"
     transform="translate(0,53.334999)" /><g
     id="g5486"
     transform="translate(0,53.334999)" /><g
     id="g5488"
     transform="translate(0,53.334999)" /><g
     id="g5490"
     transform="translate(0,53.334999)" /><g
     id="g5492"
     transform="translate(0,53.334999)" /><g
     id="g5494"
     transform="translate(0,53.334999)" /><g
     id="g5496"
     transform="translate(0,53.334999)" /><g
     id="g5498"
     transform="translate(0,53.334999)" /><g
     id="g5500"
     transform="translate(0,53.334999)" /><g
     inkscape:groupmode="layer"
     id="layer1"
     inkscape:label="Tazza" /><g
     id="g4954"><g
       transform="translate(-8.3368682,0.25965202)"
       id="g4889"><path
         id="path30859"
         style="fill:none;fill-opacity:1;fill-rule:evenodd;stroke:#704f38;stroke-width:0.3473255;stroke-linecap:butt;stroke-linejoin:miter;stroke-miterlimit:4;stroke-dasharray:none;stroke-opacity:1"
         d="m 45.519245,32.969347 1.921829,-4.691301 4.991611,-0.03641 -1.843947,4.63687 -5.069493,0.09084 z"
         inkscape:connector-curvature="0" /><path
         id="path30855"
         style="fill:#704f38;fill-opacity:1;fill-rule:evenodd;stroke:none;stroke-width:1px;stroke-linecap:butt;stroke-linejoin:miter;stroke-opacity:1"
         d="m 66.57031,28.203022 c 0.143328,0.316791 -0.03977,0.493036 -0.0893,0.756469 0.320922,-0.220207 0.841138,-0.580931 0.821981,-0.611444 l -0.280211,-0.446326 -0.452442,0.301348 z"
         inkscape:connector-curvature="0" /><path
         id="path29926"
         style="fill:#704f38;fill-opacity:1;fill-rule:evenodd;stroke:none;stroke-width:1px;stroke-linecap:butt;stroke-linejoin:miter;stroke-opacity:1"
         d="m 49.703425,45.52265 c 1.310116,1.890794 4.030294,0.03174 2.743993,-1.850332"
         inkscape:connector-curvature="0" /><path
         id="path30815"
         style="fill:#704f38;fill-opacity:1;fill-rule:evenodd;stroke:none;stroke-width:1px;stroke-linecap:butt;stroke-linejoin:miter;stroke-opacity:1"
         d="m 55.338461,41.670571 c 1.310116,1.890794 4.030295,0.03174 2.743993,-1.850332"
         inkscape:connector-curvature="0" /><path
         id="path30817"
         style="fill:#704f38;fill-opacity:1;fill-rule:evenodd;stroke:none;stroke-width:1px;stroke-linecap:butt;stroke-linejoin:miter;stroke-opacity:1"
         d="m 66.045754,34.352679 c 1.310107,1.8908 4.030294,0.03174 2.743992,-1.850331"
         inkscape:connector-curvature="0" /><path
         id="path30819"
         style="fill:#704f38;fill-opacity:1;fill-rule:evenodd;stroke:none;stroke-width:1px;stroke-linecap:butt;stroke-linejoin:miter;stroke-opacity:1"
         d="m 71.698249,30.489486 c 1.310107,1.890799 4.030294,0.03174 2.743992,-1.850331"
         inkscape:connector-curvature="0" /><path
         id="path30821"
         style="fill:#704f38;fill-opacity:1;fill-rule:evenodd;stroke:none;stroke-width:1px;stroke-linecap:butt;stroke-linejoin:miter;stroke-opacity:1"
         d="m 53.322645,44.320574 2.28832,-1.563951 C 55.356628,42.634495 55.157338,42.456958 54.86517,42.013649 l -1.925434,1.315936 c 0.290081,0.453697 0.361343,0.707521 0.382909,0.990989 z"
         inkscape:connector-curvature="0" /><path
         id="path30825"
         style="fill:#704f38;fill-opacity:1;fill-rule:evenodd;stroke:none;stroke-width:1px;stroke-linecap:butt;stroke-linejoin:miter;stroke-opacity:1"
         d="m 69.672542,33.152512 2.288321,-1.563951 c -0.254338,-0.122128 -0.453629,-0.299666 -0.745796,-0.742974 l -1.925434,1.315936 c 0.290081,0.453697 0.361343,0.707521 0.382909,0.990989 z"
         inkscape:connector-curvature="0" /><path
         id="path30841"
         style="fill:#704f38;fill-opacity:1;fill-rule:evenodd;stroke:none;stroke-width:1px;stroke-linecap:butt;stroke-linejoin:miter;stroke-opacity:1"
         d="m 65.33429,24.241724 c -0.11029,0.296123 -0.21996,0.557809 -0.131485,0.687262 l 3.616972,5.286915 c 0.2431,0.2486 0.475997,0.158067 0.739429,0.207603 l -0.977364,0.657077 -3.961185,-5.769838 c -0.07815,-0.114345 -0.372113,-0.10984 -0.681911,-0.114571 l 1.395537,-0.954434 z"
         inkscape:connector-curvature="0" /><path
         id="path30827"
         style="fill:#704f38;fill-opacity:1;fill-rule:evenodd;stroke:none;stroke-width:1px;stroke-linecap:butt;stroke-linejoin:miter;stroke-opacity:1"
         d="M 42.82878,38.399369 70.244737,19.661953 70.835801,20.526778 43.427118,39.259222 42.828789,38.399363 Z"
         inkscape:connector-curvature="0" /><path
         id="path30829"
         style="fill:#704f38;fill-opacity:1;fill-rule:evenodd;stroke:none;stroke-width:1px;stroke-linecap:butt;stroke-linejoin:miter;stroke-opacity:1"
         d="m 58.562645,28.862802 c 0.315959,0.0048 0.599608,-0.0023 0.688083,0.127131 l 1.964466,2.879657 c 0.143327,0.31679 -0.02563,0.5009 -0.07516,0.764333 l 1.395842,-0.953987 c -0.26403,-0.04965 -0.496961,0.05501 -0.738152,-0.198261 l -1.979862,-2.89547 c -0.07815,-0.114345 0.03282,-0.386594 0.140944,-0.676951 l -1.396147,0.95354 z"
         inkscape:connector-curvature="0" /><path
         id="path30833"
         style="fill:#704f38;fill-opacity:1;fill-rule:evenodd;stroke:none;stroke-width:1px;stroke-linecap:butt;stroke-linejoin:miter;stroke-opacity:1"
         d="m 53.191881,32.527102 c 0.315959,0.0048 0.599606,-0.0023 0.688082,0.127131 l 1.964465,2.879657 c 0.143319,0.316796 -0.02563,0.500901 -0.07516,0.764333 l 1.395842,-0.953988 c -0.26403,-0.04965 -0.49696,0.05501 -0.738152,-0.19826 l -1.979863,-2.895469 c -0.07815,-0.114345 0.03283,-0.386596 0.140945,-0.676952 l -1.396147,0.953541 z"
         inkscape:connector-curvature="0" /><path
         id="path30839"
         style="fill:#704f38;fill-opacity:1;fill-rule:evenodd;stroke:none;stroke-width:1px;stroke-linecap:butt;stroke-linejoin:miter;stroke-opacity:1"
         d="m 47.867224,36.179577 c 0.315959,0.0048 0.599607,-0.0023 0.688082,0.127131 l 3.612018,5.2903 c 0.143327,0.31679 -0.02562,0.5009 -0.07516,0.764333 l 0.967208,-0.671939 -3.936929,-5.786416 c -0.07815,-0.114345 0.03283,-0.386594 0.140944,-0.676951 l -1.396146,0.95354 z"
         inkscape:connector-curvature="0" /><path
         id="path30845"
         style="fill:#704f38;fill-opacity:1;fill-rule:evenodd;stroke:none;stroke-width:1px;stroke-linecap:butt;stroke-linejoin:miter;stroke-opacity:1"
         d="m 67.702448,22.623208 c 0.315959,0.0048 0.599607,-0.0023 0.688082,0.12713 l 3.612018,5.2903 c 0.143327,0.31679 -0.02562,0.5009 -0.07516,0.764334 l 0.967208,-0.671939 -4.223525,-6.166958 -0.96857,0.657123 z"
         inkscape:connector-curvature="0" /><path
         id="path30849"
         style="fill:#704f38;fill-opacity:1;fill-rule:evenodd;stroke:none;stroke-width:1px;stroke-linecap:butt;stroke-linejoin:miter;stroke-opacity:1"
         d="m 46.564737,37.062634 c -0.11029,0.296124 -0.21996,0.55781 -0.131485,0.687264 l 3.616971,5.286914 c 0.243093,0.248606 0.475997,0.158068 0.73943,0.207602 l -0.972398,0.664345 -4.216614,-6.182367 0.964057,-0.663729 z"
         inkscape:connector-curvature="0" /><path
         id="path30853"
         style="fill:#704f38;fill-opacity:1;fill-rule:evenodd;stroke:none;stroke-width:1px;stroke-linecap:butt;stroke-linejoin:miter;stroke-opacity:1"
         d="m 43.949677,38.835203 0.667179,4.955493 1.529441,2.237827 c 0.27621,0.404142 1.040567,0.499365 1.403622,0.249572 L 75.928075,26.883064 c 0.356625,-0.243735 0.499439,-1.073399 0.277313,-1.398405 l -1.554305,-2.274208 -4.387534,-2.38052 -0.538764,0.368219 2.973036,1.630653 c 0.772951,0.667039 0.345279,1.475386 0.08761,1.826228 l -1.599719,1.083638 1.673257,2.420021 -4.251868,2.905937 -1.660166,-2.4291 -15.57329,10.643554 1.657889,2.425768 -3.190589,2.180606 -1.655673,-2.422525 -1.605022,1.096951 c -0.363954,0.248744 -1.277037,0.231938 -1.618708,-0.740963 l -0.479028,-3.347929 -0.532857,0.36418 z"
         inkscape:connector-curvature="0" /><path
         id="path30857"
         style="fill:#704f38;fill-opacity:1;fill-rule:evenodd;stroke:none;stroke-width:1px;stroke-linecap:butt;stroke-linejoin:miter;stroke-opacity:1"
         d="m 51.112255,38.771941 c 0.243092,0.248606 0.473803,0.142036 0.737237,0.191571 -0.321736,0.219018 -0.846781,0.572675 -0.86825,0.543744 L 50.667181,39.084065 51.112233,38.7719 Z"
         inkscape:connector-curvature="0" /><path
         id="path31750"
         style="fill:#704f38;fill-opacity:1;fill-rule:evenodd;stroke-width:1px;stroke-linecap:butt;stroke-linejoin:miter;stroke-opacity:1"
         d="m 53.656909,31.024864 -0.50239,-0.106908 -5.417284,3.702439 -0.04493,0.470502 5.96458,-4.066071 z"
         inkscape:connector-curvature="0" /></g><path
       inkscape:transform-center-y="-15.059602"
       inkscape:transform-center-x="-17.522359"
       style="opacity:1;fill:#704f38;fill-opacity:1;stroke:#645f5e;stroke-width:0.08224948;stroke-linejoin:miter;stroke-miterlimit:4;stroke-dasharray:none;stroke-opacity:1"
       d="m 21.621976,38.317068 c -0.08298,-0.0044 -0.23879,-0.06438 -0.34623,-0.133336 -0.178126,-0.114323 -0.206631,-0.15879 -0.323355,-0.504423 -0.07041,-0.208473 -0.160132,-0.510057 -0.1994,-0.67018 l -0.07138,-0.291136 -3.215084,0.754212 -3.215082,0.754212 0.12188,0.626042 c 0.13655,0.701408 0.121262,0.88288 -0.0921,1.093094 -0.09067,0.08933 -0.212881,0.146152 -0.418254,0.194463 -0.257859,0.06064 -0.312224,0.05648 -0.488408,-0.03752 -0.244137,-0.130255 -0.321459,-0.271752 -0.528714,-0.967524 l -0.161158,-0.54101 -0.460567,0.108042 -0.460567,0.108043 -0.69993,-2.98369 -0.69993,-2.983688 -0.197709,-1.990438 c -0.278204,-2.800825 -0.276735,-2.947431 0.0338,-3.37334 0.414641,-0.568697 1.649535,-1.325528 3.005532,-1.842006 0.562615,-0.214286 2.123049,-0.591651 2.704967,-0.654144 0.966432,-0.103785 2.311888,-0.06975 2.930296,0.07412 0.443559,0.103195 0.803456,0.269585 1.015059,0.469287 0.233482,0.220349 0.407647,0.633371 1.602605,3.80047 l 0.39533,1.04778 0.674683,2.876064 0.674684,2.876065 -0.484062,0.113554 -0.484062,0.113554 0.117796,0.600442 c 0.124379,0.633981 0.116453,0.800556 -0.04943,1.039248 -0.0909,0.130805 -0.326567,0.295857 -0.454583,0.318378 -0.04166,0.0073 -0.143628,0.0097 -0.226613,0.0054 z m -8.146947,-1.774497 c 0.327232,-0.252288 0.438316,-0.657106 0.29866,-1.088392 -0.156194,-0.482369 -0.597912,-0.719246 -1.115005,-0.597944 -0.532483,0.124913 -0.81131,0.532904 -0.726684,1.063318 0.07613,0.477181 0.353357,0.775434 0.780487,0.839686 0.204302,0.03073 0.580174,-0.07606 0.762542,-0.21667 z m 8.00507,-1.899896 c 0.09916,-0.08631 0.222335,-0.261194 0.273718,-0.388648 0.07948,-0.197169 0.08328,-0.274649 0.02545,-0.519428 -0.08194,-0.346845 -0.252928,-0.565735 -0.556436,-0.712348 -0.196114,-0.09474 -0.234529,-0.09539 -0.597791,-0.01018 -0.36396,0.08538 -0.397202,0.102628 -0.532093,0.276479 -0.363517,0.468435 -0.294616,1.054664 0.167306,1.423489 0.324972,0.259476 0.878142,0.22802 1.219847,-0.06937 z m -0.590608,-3.852447 c 0.107665,-0.240327 0.09083,-0.304777 -0.464355,-1.777836 -0.567582,-1.50594 -0.845519,-2.156304 -0.973541,-2.278065 -0.05911,-0.05622 -0.172912,-0.09243 -0.28303,-0.09007 -0.101291,0.0022 -1.928095,0.413056 -4.059557,0.913067 -4.199861,0.985227 -4.167008,0.975465 -4.208778,1.248078 -0.02377,0.155121 0.02826,0.914879 0.153405,2.240185 0.139947,1.482006 0.171134,1.687419 0.278801,1.836272 0.208638,0.28845 -0.139478,0.347781 4.911598,-0.837128 l 4.562989,-1.070412 0.08247,-0.184094 z M 17.867776,26.39146 c 0.281348,-0.247666 0.09659,-0.939597 -0.267101,-1.000288 -0.259516,-0.04331 -5.386747,1.162695 -5.600526,1.317397 -0.189267,0.136894 -0.24341,0.406287 -0.135881,0.676075 0.09798,0.245828 0.192401,0.321745 0.400386,0.321909 0.259495,2.11e-4 5.50848,-1.231701 5.603128,-1.315053 z"
       id="path6353"
       inkscape:connector-curvature="0" /><path
       inkscape:connector-curvature="0"
       style="fill:#fff5ef;fill-opacity:1;stroke:#6f4e37;stroke-width:0.37776971;stroke-miterlimit:4;stroke-dasharray:none;stroke-opacity:0.99215686"
       id="path5466"
       d="m 79.522478,43.921445 c -2.840828,-2.300618 -6.841409,-2.338395 -9.474464,-2.047512 0.07555,-1.835962 0.117109,-3.713477 0.117109,-5.666547 l -69.46429589,0 c 0,18.775156 2.84082819,32.321978 20.81888889,37.376536 l 27.826518,0 c 7.120959,-1.998401 11.84308,-5.356774 14.974791,-9.822012 6.822521,-0.132219 17.796731,-2.818162 18.2085,-12.239739 0.177552,-4.125245 -1.537523,-6.414529 -3.007047,-7.600726 z M 67.180742,58.374914 c 1.307083,-3.358373 2.081511,-7.13607 2.508391,-11.287759 1.843516,-0.302216 5.020559,-0.494878 6.62608,0.812205 0.294661,0.241772 1.212641,0.989757 1.106866,3.403705 -0.215329,4.880785 -6.274755,6.520305 -10.241337,7.071849 z" /><g
       style="fill:#6f4e37;fill-opacity:0.99215686;stroke:#6f4e37;stroke-opacity:0.99215686"
       id="g4858"
       transform="matrix(0.7159604,0,0,0.67903125,251.36248,-27.029186)"><path
         style="fill:#6f4e37;fill-opacity:0.99215686;stroke:#6f4e37;stroke-opacity:0.99215686"
         id="path4860"
         d="m 154.9,95.9 c -2.1,-0.2 0.3,1.8 0.3,10.8 0,12 -3.5,18.4 -3.5,28.4 0,6.5 0.7,12.2 1.6,12.2 9.9,0 18,-11.5 18,-25.7 0,-13.6 -7.2,-24.6 -16.4,-25.7 z"
         class="st2"
         inkscape:connector-curvature="0" /><path
         style="fill:#6f4e37;fill-opacity:0.99215686;stroke:#6f4e37;stroke-opacity:0.99215686"
         id="path4862"
         d="m 148.9,147.2 c 2.1,0.2 -0.3,-1.8 -0.3,-10.8 0,-12 3.5,-18.4 3.5,-28.4 0,-6.5 -0.7,-12.2 -1.6,-12.2 -9.9,0 -18,11.5 -18,25.7 0,13.5 7.2,24.5 16.4,25.7 z"
         class="st2"
         inkscape:connector-curvature="0" /><path
         style="fill:#6f4e37;fill-opacity:0.99215686;stroke:#6f4e37;stroke-opacity:0.99215686"
         id="path4866"
         d="m 148,124.6 c 0.2,-1.4 0.5,-2.7 0.8,-4 0.8,-4.1 1.6,-7.9 1.6,-12.5 0,-5.4 -0.5,-9 -0.8,-10.4 -0.5,0 -1.1,0.1 -1.6,0.2 1.9,8.3 0.9,18.5 0,26.7 z"
         class="st3"
         inkscape:connector-curvature="0" /><path
         style="fill:#6f4e37;fill-opacity:0.99215686;stroke:#6f4e37;stroke-opacity:0.99215686"
         id="path4868"
         d="m 155.8,119.1 c -0.2,1.4 -0.5,2.7 -0.8,4 -0.8,4.1 -1.6,7.9 -1.6,12.5 0,5.4 0.5,9 0.8,10.4 0.5,0 1.1,-0.1 1.6,-0.2 -1.9,-8.3 -0.9,-18.6 0,-26.7 z"
         class="st4"
         inkscape:connector-curvature="0" /><path
         style="fill:#6f4e37;fill-opacity:0.99215686;stroke:#6f4e37;stroke-opacity:0.99215686"
         id="path4870"
         d="m 137.1,135.2 c -2.8,-10.9 -2.9,-18.7 0,-27.3 -1.8,3.9 -2.9,8.6 -2.9,13.7 0,5 1.1,9.7 2.9,13.6 z"
         class="st4"
         inkscape:connector-curvature="0" /></g><g
       transform="matrix(3.1750487,0,0,3.1750487,168.32317,-20.49682)"
       id="text6104"
       style="font-style:normal;font-weight:normal;font-size:38.58267593px;line-height:50%;font-family:sans-serif;letter-spacing:0px;word-spacing:0px;fill:#6f4e37;fill-opacity:0.99215686;stroke:none;stroke-width:1px;stroke-linecap:butt;stroke-linejoin:miter;stroke-opacity:0.99215686"><path
         inkscape:connector-curvature="0"
         id="path6109"
         style="font-style:normal;font-variant:normal;font-weight:normal;font-stretch:normal;font-size:16.87992096px;line-height:50%;font-family:'Book Antiqua';-inkscape-font-specification:'Book Antiqua, Normal';text-align:start;writing-mode:lr-tb;text-anchor:start;fill:#6f4e37;fill-opacity:0.99215686;stroke:none;stroke-opacity:0.99215686"
         d="m 40.459509,20.683424 -0.06594,-1.467103 Q 39.660021,18.730035 38.85229,18.491012 38.052802,18.25199 37.179134,18.25199 q -2.22538,0 -3.568851,1.351712 -1.335228,1.351713 -1.335228,3.618304 0,1.590734 0.675856,2.835299 0.684099,1.244564 1.936905,1.969874 1.252807,0.725309 2.64573,0.725309 1.104448,0 2.18417,-0.255507 0.80773,-0.189569 1.623703,-0.791246 l 0.173085,0.164843 q -0.173085,0.379139 -0.321444,0.76652 -0.964331,0.478044 -1.945147,0.725309 -0.972573,0.239022 -1.961631,0.239022 -2.027569,0 -3.568851,-0.783004 -1.533039,-0.783004 -2.357254,-2.159443 -0.824215,-1.384681 -0.824215,-3.123775 0,-1.739093 0.832457,-3.10729 0.832457,-1.376439 2.349012,-2.126474 1.524798,-0.758278 3.741936,-0.758278 1.162143,0 2.719909,0.379139 0.774762,0.181327 1.261049,0.271991 -0.370897,0.88191 -0.428592,2.489129 l -0.552224,0 z" /><path
         inkscape:connector-curvature="0"
         id="path6111"
         style="font-style:normal;font-variant:normal;font-weight:normal;font-stretch:normal;font-size:16.87992096px;line-height:50%;font-family:'Book Antiqua';-inkscape-font-specification:'Book Antiqua, Normal';text-align:start;writing-mode:lr-tb;text-anchor:start;fill:#6f4e37;fill-opacity:0.99215686;stroke:none;stroke-opacity:0.99215686"
         d="m 43.006333,23.70005 0.0082,-0.552224 -0.0082,-0.568708 0.898394,-0.511013 q 0.609919,-0.34617 1.063237,-0.478045 0.46156,-0.131874 0.980816,-0.131874 1.137416,0 1.829757,0.511013 0.700583,0.511013 0.840699,1.30226 0.09891,0.593434 0.123632,2.942447 0.01648,2.217138 0.09891,2.447918 0.08242,0.23078 0.412108,0.23078 l 0.642887,0 0,0.543982 q -0.939605,-0.05769 -1.310502,-0.05769 -0.46156,0 -1.236322,0.05769 l 0.0082,-0.733551 q 0,-0.354413 -0.0082,-0.717067 l -1.706125,1.302259 q -0.23078,0.173085 -0.453318,0.239023 -0.222538,0.07418 -0.618161,0.07418 -1.063237,0 -1.623703,-0.519255 -0.560466,-0.527498 -0.560466,-1.409408 0,-0.832457 0.395623,-1.450618 0.403865,-0.626403 1.137416,-0.923121 0.741794,-0.296717 3.428734,-0.774762 -0.01648,-1.046753 -0.46156,-1.566008 -0.560466,-0.65113 -1.598977,-0.65113 -0.395623,0 -0.741793,0.09891 -0.346171,0.09891 -0.642888,0.296717 -0.239022,0.585193 -0.436834,1.120933 l -0.46156,-0.123633 z m 4.343612,1.310502 q -2.291317,0.494529 -2.909478,0.931363 -0.618162,0.428592 -0.618162,1.335228 0,0.609919 0.354413,0.980816 0.354412,0.362654 0.914878,0.362654 0.618162,0 1.178628,-0.34617 0.568708,-0.34617 1.079721,-1.030269 l -0.01648,-1.829757 0.01648,-0.403865 z" /><path
         inkscape:connector-curvature="0"
         id="path6113"
         style="font-style:normal;font-variant:normal;font-weight:normal;font-stretch:normal;font-size:16.87992096px;line-height:50%;font-family:'Book Antiqua';-inkscape-font-specification:'Book Antiqua, Normal';text-align:start;writing-mode:lr-tb;text-anchor:start;fill:#6f4e37;fill-opacity:0.99215686;stroke:none;stroke-opacity:0.99215686"
         d="m 53.309019,22.900562 0,3.206196 q 0,2.307802 0.131874,2.579792 0.140117,0.271991 0.832457,0.271991 l 0.725309,0 0,0.478045 q -1.351712,-0.06594 -1.936905,-0.06594 l -2.604519,0.06594 0,-0.478045 0.552224,0 q 0.642888,0 0.758278,-0.255506 0.156601,-0.34617 0.156601,-2.596277 l 0,-3.206196 -1.18687,0.08242 0,-0.34617 q 0.585193,-0.288475 1.18687,-0.609919 l 0,-1.046753 q 0,-0.799488 0.214296,-1.302259 0.222538,-0.502771 0.88191,-1.18687 0.873667,-0.914878 1.359954,-1.195111 0.321444,-0.18957 0.807731,-0.18957 0.321444,0 0.717067,0.107148 -0.02473,0.42035 -0.02473,0.675856 0,0.255507 0.02473,0.700583 l -0.206054,0.09066 q -0.486287,-0.428592 -1.11269,-0.428592 -0.692341,0 -0.989058,0.469802 -0.288475,0.469803 -0.288475,2.291318 l 0,1.096206 q 1.335228,-0.0082 2.184169,-0.08242 l 0.05769,0.08242 -0.131874,0.791246 -1.013784,-0.02473 q -0.370897,0 -1.096206,0.02473 z" /><path
         inkscape:connector-curvature="0"
         id="path6115"
         style="font-style:normal;font-variant:normal;font-weight:normal;font-stretch:normal;font-size:16.87992096px;line-height:50%;font-family:'Book Antiqua';-inkscape-font-specification:'Book Antiqua, Normal';text-align:start;writing-mode:lr-tb;text-anchor:start;fill:#fff5ef;fill-opacity:1;stroke:#704f38;stroke-width:0.1;stroke-miterlimit:4;stroke-dasharray:none;stroke-opacity:1"
         d="m 57.941107,25.447386 q 0.04121,1.623703 0.832457,2.464402 0.791246,0.8407 2.077022,0.8407 0.57695,0 1.145658,-0.18957 0.568709,-0.189569 1.129175,-0.568708 l 0.140116,0.123632 -0.263748,0.692341 q -0.684099,0.395623 -1.409408,0.593434 -0.725309,0.197812 -1.491829,0.197812 -1.673156,0 -2.703425,-1.054995 -1.022026,-1.063237 -1.022026,-2.87651 0,-1.384681 0.57695,-2.398465 0.379139,-0.667614 1.401166,-1.236323 1.022026,-0.568708 1.986357,-0.568708 1.458861,0 2.307802,0.857184 0.857184,0.857183 0.857184,2.398465 l -0.01649,0.486287 q -0.543982,0.131874 -1.03851,0.173085 -0.88191,0.06594 -2.447919,0.06594 l -2.060537,0 z m 0.02473,-0.618161 q 1.277533,0.05769 2.818814,0.05769 0.618162,0 1.195112,-0.05769 l 0,-0.461561 q 0,-0.725309 -0.288475,-1.376438 -0.181327,-0.403866 -0.634646,-0.667614 -0.453318,-0.271991 -1.046753,-0.271991 -0.92312,0 -1.475344,0.675856 -0.552224,0.675856 -0.568708,2.101748 z" /><path
         inkscape:connector-curvature="0"
         id="path6117"
         style="font-style:normal;font-variant:normal;font-weight:normal;font-stretch:normal;font-size:16.87992096px;line-height:50%;font-family:'Book Antiqua';-inkscape-font-specification:'Book Antiqua, Normal';text-align:start;writing-mode:lr-tb;text-anchor:start;fill:#6f4e37;fill-opacity:0.99215686;stroke:none;stroke-opacity:0.99215686"
         d="M 65.441463,22.521423 65.202441,18.82894 q -0.02473,-0.337928 -0.02473,-0.535739 0,-0.362655 0.1566,-0.552224 0.164843,-0.197812 0.395624,-0.197812 0.239022,0 0.395623,0.18957 0.156601,0.189569 0.156601,0.568708 0,0.189569 -0.01649,0.527497 l -0.247264,3.692483 q -0.02473,0.354413 -0.296718,0.354413 -0.255506,0 -0.280233,-0.354413 z" /></g><g
       id="text4187"
       style="font-style:normal;font-variant:normal;font-weight:normal;font-stretch:normal;font-size:54.49327469px;line-height:100%;font-family:'Book Antiqua';-inkscape-font-specification:'Book Antiqua, Normal';text-align:start;letter-spacing:0px;word-spacing:0px;writing-mode:lr-tb;text-anchor:start;fill:#704f38;fill-opacity:1;stroke:none;stroke-width:1px;stroke-linecap:butt;stroke-linejoin:miter;stroke-opacity:1"><path
         id="path4940"
         style="font-style:normal;font-variant:normal;font-weight:normal;font-stretch:normal;font-size:54.49327469px;line-height:100%;font-family:'Book Antiqua';-inkscape-font-specification:'Book Antiqua, Normal';text-align:start;writing-mode:lr-tb;text-anchor:start;fill:#704f38;fill-opacity:1"
         d="m 106.85012,36.747469 q -0.29269,3.991207 -0.29269,8.408142 l 0,15.166586 q 0,8.461358 0.42573,9.339423 0.42573,0.851458 3.03332,0.851458 l 1.9956,0 0,1.676306 q -4.70962,-0.186256 -7.98241,-0.186256 -3.2994,0 -7.929199,0.186256 l 0,-1.676306 2.235076,0 q 1.756133,0 2.288293,-0.452337 0.53216,-0.478945 0.6652,-1.835955 0.26608,-3.113141 0.26608,-8.03563 l 0,-15.193193 q 0,-4.496759 -0.18626,-8.248494 l -2.714017,0 q -6.572186,0 -7.237388,0.319297 -0.665201,0.292688 -0.878065,2.368116 l -0.372513,3.565478 -1.676306,0 0.05322,-3.166357 q 0,-1.91578 -0.319297,-5.507866 14.36834,0.186257 16.89611,0.186257 l 14.71425,-0.186257 q -0.50556,4.49676 -0.58538,8.674223 l -1.6497,0 -0.26608,-3.485654 q -0.15965,-1.809347 -0.45234,-2.128644 -0.29268,-0.345904 -1.30379,-0.425728 -2.92689,-0.212865 -6.65201,-0.212865 l -2.07543,0 z" /><path
         id="path4942"
         style="font-style:normal;font-variant:normal;font-weight:normal;font-stretch:normal;font-size:54.49327469px;line-height:100%;font-family:'Book Antiqua';-inkscape-font-specification:'Book Antiqua, Normal';text-align:start;writing-mode:lr-tb;text-anchor:start;fill:#704f38;fill-opacity:1"
         d="m 130.85058,52.472824 q 1.06432,-1.011106 2.3149,-2.660805 1.49005,-1.942387 2.76723,-2.660804 1.27719,-0.718418 2.68742,-0.718418 1.46344,0 2.23507,0.345905 0.37252,0.159648 0.37252,0.505553 l -0.0266,0.26608 q -0.39912,2.155252 -0.45234,6.040026 l -1.19736,0 q -0.61199,-1.35701 -1.46344,-1.915779 -0.82485,-0.558769 -1.99561,-0.558769 -1.56987,0 -2.92688,1.064322 -1.3304,1.064322 -1.78274,2.980101 -0.45234,1.915779 -0.45234,7.530077 0,3.698518 0.29269,6.226282 0.10643,0.931281 0.53216,1.170754 1.01111,0.558769 2.9801,0.558769 l 1.59648,0 0,1.543266 q -4.07103,-0.186256 -7.71633,-0.186256 -3.53887,0 -6.99791,0.186256 l 0,-1.543266 2.55437,-0.212865 q 1.35701,-0.106432 1.70291,-0.505552 0.37252,-0.399121 0.47895,-2.580981 0.18625,-3.831558 0.18625,-9.099951 0,-6.412539 -0.50555,-7.530076 -0.3459,-0.718418 -2.18186,-0.718418 l -2.23507,0 0,-1.543266 q 2.58098,-0.292689 4.60319,-0.745025 2.02221,-0.478945 3.59208,-1.197362 0.37252,-0.186257 0.61199,-0.186257 0.29269,0 0.39912,0.159649 0.10643,0.159648 0.10643,0.718417 l -0.0798,5.268393 z" /><path
         id="path4944"
         style="font-style:normal;font-variant:normal;font-weight:normal;font-stretch:normal;font-size:54.49327469px;line-height:100%;font-family:'Book Antiqua';-inkscape-font-specification:'Book Antiqua, Normal';text-align:start;writing-mode:lr-tb;text-anchor:start;fill:#704f38;fill-opacity:1"
         d="m 146.04377,53.670186 0.0266,-1.782739 -0.0266,-1.835955 2.90028,-1.649699 q 1.969,-1.117538 3.43244,-1.543267 1.49005,-0.425729 3.16636,-0.425729 3.67191,0 5.90698,1.649699 2.26168,1.649699 2.71402,4.204071 0.3193,1.915779 0.39912,9.499072 0.0532,7.157564 0.3193,7.902589 0.26608,0.745025 1.3304,0.745025 l 2.07543,0 0,1.756131 q -3.03332,-0.186256 -4.23068,-0.186256 -1.49005,0 -3.99121,0.186256 l 0.0266,-2.368116 q 0,-1.144145 -0.0266,-2.314899 l -5.50786,4.204071 q -0.74503,0.558768 -1.46344,0.771633 -0.71842,0.239472 -1.99561,0.239472 -3.43244,0 -5.24178,-1.676307 -1.80935,-1.702914 -1.80935,-4.549975 0,-2.687413 1.27719,-4.683016 1.30379,-2.022211 3.67191,-2.980101 2.39472,-0.957889 11.06894,-2.501156 -0.0532,-3.379222 -1.49005,-5.055528 -1.80934,-2.102036 -5.16196,-2.102036 -1.27718,0 -2.39472,0.319297 -1.11754,0.319296 -2.07543,0.957889 -0.77163,1.889171 -1.41023,3.618694 l -1.49005,-0.39912 z m 14.02244,4.230679 q -7.39703,1.596482 -9.39264,3.006709 -1.9956,1.383618 -1.9956,4.310503 0,1.968995 1.14415,3.166357 1.14414,1.170754 2.95349,1.170754 1.9956,0 3.80495,-1.117538 1.83595,-1.117538 3.48565,-3.326005 l -0.0532,-5.906986 0.0532,-1.303794 z" /><path
         id="path4946"
         style="font-style:normal;font-variant:normal;font-weight:normal;font-stretch:normal;font-size:54.49327469px;line-height:100%;font-family:'Book Antiqua';-inkscape-font-specification:'Book Antiqua, Normal';text-align:start;writing-mode:lr-tb;text-anchor:start;fill:#704f38;fill-opacity:1"
         d="m 179.11757,51.541542 4.01782,-3.565478 q 0.71841,-0.638593 1.51665,-0.931281 1.75613,-0.585377 3.51227,-0.585377 2.84706,0 4.92248,1.170753 2.07543,1.144146 2.9801,3.006709 0.90468,1.835956 0.90468,5.773946 l -0.13304,8.381534 q 0,4.337111 0.37251,5.002312 0.50555,0.851458 1.969,0.851458 l 1.91577,0 0,1.543266 q -2.84706,-0.186256 -4.92248,-0.186256 -2.02221,0 -4.33711,0.186256 0.50555,-5.188568 0.50555,-14.022439 0,-3.565478 -0.63859,-5.055528 -0.61199,-1.490051 -2.10204,-2.394724 -1.46344,-0.904674 -3.53887,-0.904674 -2.58098,0 -4.39033,1.303794 -1.78274,1.303794 -2.20847,2.873669 -0.26608,1.037714 -0.26608,5.428041 0,4.869272 0.0798,9.046735 0.0266,1.250578 0.37251,1.569875 0.6652,0.611985 2.18186,0.611985 l 1.88917,0 0,1.543266 q -4.49676,-0.186256 -7.15756,-0.186256 -2.82045,0 -6.41254,0.186256 l 0,-1.543266 1.91578,0 q 1.96899,0 2.28829,-0.904674 0.34591,-0.931281 0.34591,-11.068946 0,-4.549976 -0.10644,-7.130956 -0.0532,-0.851457 -0.42573,-1.170754 -0.37251,-0.319296 -2.10203,-0.319296 l -1.91578,0 0,-1.516659 q 2.28829,-0.26608 4.09764,-0.718417 1.80935,-0.452337 4.07103,-1.383619 0.23947,-0.106432 0.45234,-0.106432 0.42572,0 0.42572,0.611985 l -0.0266,1.011106 -0.0532,3.592086 z" /><path
         id="path4948"
         style="font-style:normal;font-variant:normal;font-weight:normal;font-stretch:normal;font-size:54.49327469px;line-height:100%;font-family:'Book Antiqua';-inkscape-font-specification:'Book Antiqua, Normal';text-align:start;writing-mode:lr-tb;text-anchor:start;fill:#704f38;fill-opacity:1"
         d="m 205.24667,64.047323 0,1.729523 q 0,2.075427 0.37251,2.58098 0.69181,0.851457 2.68742,1.649699 2.02221,0.798241 4.15085,0.798241 2.74063,0 4.47015,-1.463442 1.72952,-1.490051 1.72952,-3.53887 0,-1.623091 -1.0111,-2.607589 -1.01111,-0.984497 -3.85817,-1.569874 -5.295,-1.064322 -6.99791,-1.862563 -1.70292,-0.798242 -2.55438,-2.128644 -0.85145,-1.330402 -0.85145,-3.219573 0,-3.53887 2.55437,-5.747338 2.58098,-2.208467 7.2906,-2.208467 3.72513,0 7.42365,1.49005 -0.21287,1.809347 -0.34591,6.066634 l -1.56987,0 q -0.0532,-2.341508 -0.50555,-3.086533 -0.61199,-0.984498 -2.23508,-1.782739 -1.62309,-0.798241 -3.45905,-0.798241 -2.42133,0 -3.88477,1.250578 -1.43683,1.22397 -1.43683,3.086533 0,1.782739 1.14414,2.687412 1.14415,0.931282 6.33272,1.968996 3.83155,0.771633 5.05552,1.436834 1.22397,0.665201 1.969,2.022211 0.74503,1.357011 0.74503,3.113142 0,3.592086 -3.08654,6.199674 -3.05992,2.607588 -8.19528,2.607588 -3.27279,0 -7.34382,-1.037713 -0.71841,-0.186257 -0.71841,-0.558769 l 0.0798,-0.372513 q 0.10643,-0.399121 0.18626,-1.410226 0.23947,-2.580981 0.23947,-4.017815 l -0.0266,-1.277186 1.6497,0 z" /><path
         id="path4950"
         style="font-style:normal;font-variant:normal;font-weight:normal;font-stretch:normal;font-size:54.49327469px;line-height:100%;font-family:'Book Antiqua';-inkscape-font-specification:'Book Antiqua, Normal';text-align:start;writing-mode:lr-tb;text-anchor:start;fill:#704f38;fill-opacity:1"
         d="m 232.25383,34.56561 q 1.22397,0 2.10204,0.904673 0.87806,0.878066 0.87806,2.128644 0,1.250578 -0.87806,2.128643 -0.87807,0.878066 -2.10204,0.878066 -1.25058,0 -2.12864,-0.878066 -0.87807,-0.878065 -0.87807,-2.128643 0,-1.250578 0.87807,-2.128644 0.87806,-0.904673 2.12864,-0.904673 z m 2.12865,11.787363 0.63859,0.399121 q -0.18626,1.995603 -0.23947,4.390327 -0.18626,7.769549 -0.18626,11.468067 0,3.459046 0.23947,5.906986 0.10643,0.95789 0.50556,1.330402 0.39912,0.372513 1.91577,0.558769 l 1.80935,0.239473 0,1.543266 q -3.88477,-0.186256 -7.07774,-0.186256 -3.13975,0 -6.33271,0.186256 l 0,-1.543266 2.28829,-0.239473 q 1.3304,-0.106432 1.62309,-0.478944 0.3193,-0.399121 0.39912,-2.580981 0.13304,-3.379221 0.13304,-9.312815 0,-4.124247 -0.13304,-6.359323 -0.0532,-0.824849 -0.47894,-1.170754 -0.39912,-0.345904 -1.83596,-0.345904 l -1.9956,0 0,-1.569875 q 3.24618,-0.478945 4.76284,-0.878065 1.54326,-0.399121 3.9646,-1.357011 z" /><path
         id="path4952"
         style="font-style:normal;font-variant:normal;font-weight:normal;font-stretch:normal;font-size:54.49327469px;line-height:100%;font-family:'Book Antiqua';-inkscape-font-specification:'Book Antiqua, Normal';text-align:start;writing-mode:lr-tb;text-anchor:start;fill:#704f38;fill-opacity:1"
         d="m 250.02801,51.275462 0,10.430353 q 0,4.071031 0.26608,5.215177 0.26608,1.144145 1.06432,1.782739 0.82485,0.638593 2.07543,0.638593 0.77163,0 1.49005,-0.292689 0.74503,-0.319296 1.46344,-0.931281 l 0.77164,0.931281 -2.58098,3.059925 q -0.85146,0.292689 -1.6497,0.452337 -0.79824,0.159648 -1.54327,0.159648 -1.969,0 -3.32601,-0.718417 -1.35701,-0.691809 -1.96899,-1.809347 -0.61199,-1.144146 -0.61199,-3.432438 l 0.0798,-5.135352 0,-10.111057 q -2.04882,0 -4.23068,0.186256 l 0,-1.144146 q 2.28829,-0.878065 4.23068,-1.835955 -0.0266,-3.80495 -0.21287,-8.248493 3.08654,-1.303795 4.44355,-2.102036 l 0.69181,0.532161 q -0.21287,2.075427 -0.45234,9.818368 3.24618,0 5.295,-0.07982 l 2.12864,-0.106432 -0.29268,2.740629 -1.09093,-0.02661 -5.10875,0.02661 -0.93128,0 z" /></g><g
       style="fill:#704f38;fill-opacity:1"
       transform="matrix(0.01904233,0,0,0.01904233,20.932587,7.4828507)"
       id="g4926"><g
         style="fill:#704f38;fill-opacity:1"
         id="g4928"><path
           style="fill:#704f38;fill-opacity:1"
           inkscape:connector-curvature="0"
           d="M 720.06845,610.80262 564.54776,455.28189 937.79741,175.34464 828.93294,66.480155 362.37085,253.10498 215.55933,106.20457 C 173.16883,63.902954 114.07097,53.771894 84.122132,83.720735 54.173292,113.5807 64.304352,172.76744 106.69485,215.06907 l 146.81153,146.9004 -186.624828,466.56209 108.864478,108.8644 279.93724,-373.24959 155.5207,155.52069 0,217.7289 108.86448,0 54.38781,-163.2522 163.34115,-54.4767 0,-108.86444 -217.72896,0 0,0 z"
           id="path4930" /></g></g></g></svg>